<svg class="svg-icon" style="width: 1em;height: 1em;vertical-align: middle;fill: currentColor;overflow: hidden;" viewBox="0 0 1024 1024" version="1.1" xmlns="http://www.w3.org/2000/svg"><path d="M512 1024a512 512 0 1 1 0-1024 512 512 0 0 1 0 1024z m0-53.894737a458.105263 458.105263 0 1 0 0-916.210526 458.105263 458.105263 0 0 0 0 916.210526z m0-107.789474a350.315789 350.315789 0 1 1 0-700.631578 350.315789 350.315789 0 0 1 0 700.631578z m0-53.894736a296.421053 296.421053 0 1 0 0-592.842106 296.421053 296.421053 0 0 0 0 592.842106z m0-107.789474a188.631579 188.631579 0 1 1 0-377.263158 188.631579 188.631579 0 0 1 0 377.263158z m0-53.894737a134.736842 134.736842 0 1 0 0-269.473684 134.736842 134.736842 0 0 0 0 269.473684z" fill="#000000" /></svg>