<svg class="svg-icon" style="width: 1em; height: 1em;vertical-align: middle;fill: currentColor;overflow: hidden;" viewBox="0 0 1024 1024" version="1.1" xmlns="http://www.w3.org/2000/svg"><path d="M881.077518 783.781892l-245.00997-199.174771c-12.292167 20.000814-27.084435 38.543235-43.960122 55.418922-1.458393 1.458393-2.916785 2.708444-4.375178 4.166836l246.676704 200.424822c6.87528 5.416887 15.208952 7.916989 23.334283 7.916989 11.4588 0 22.917599-5.208545 30.417904-15.000611 12.917192-16.875687 9.583723-41.043337-7.083621-53.752187z" fill="#616161" /><path d="M517.7294 455.226857c0-11.875483-9.583723-21.250865-21.250865-21.250865h-23.750966c-4.166836 0-8.125331 2.083418-10.417091 5.416887l-35.001424 49.377009-8.542014-17.917396 13.542217-28.542828c1.875076-3.958494-1.041709-8.333672-5.208545-8.333672h-27.084435c-4.375178 0-7.291963 4.58352-5.208546 8.333672L408.349949 470.852492l-8.333672 17.709054-33.959715-48.960325c-2.29176-3.541811-6.458596-5.625229-10.625433-5.625229h-25.001017c-11.875483 0-21.250865 9.583723-21.250865 21.250865v141.672431h208.758495l-0.208342-141.672431z" fill="#039BE5" /><path d="M413.350153 420.225432c37.91821 0 68.752798-30.834588 68.752797-68.752797s-30.834588-68.752798-68.752797-68.752798-68.752798 30.834588-68.752798 68.752798c0.208342 37.91821 31.04293 68.752798 68.752798 68.752797z" fill="#29B6F6" /><path d="M412.933469 741.488505c38.543235 0 75.836419-7.500305 111.046185-22.292574 31.251272-13.333876 59.7941-31.876297 84.378433-55.002238 2.083418-1.875076 4.166836-3.958494 6.041913-5.833571 16.250661-16.250661 30.417904-34.168057 42.085046-53.752187 7.083622-11.875483 13.542218-24.16765 18.750763-36.876501 14.792269-35.209766 22.292574-72.50295 22.292574-110.837843 0-38.334893-7.500305-75.836419-22.292574-110.837843-2.083418-4.791862-4.166836-9.583723-6.458596-14.167243-13.75056-28.334486-32.084639-53.960529-54.585555-76.461445-13.958901-13.958901-29.376195-26.45941-45.835198-37.084842-14.167243-9.375381-29.167854-17.29237-44.79349-23.959309-35.001424-14.792269-72.086267-22.292574-110.421159-22.292573h-0.625026V254.177009H413.141811c54.168871 0 104.795931 21.250865 142.922482 59.377416 4.375178 4.375178 8.542014 8.958698 12.500509 13.542218 1.250051 1.666734 2.708444 3.125127 3.958494 4.791862 27.917803 35.62645 43.126755 79.169888 43.126755 125.005086 0 54.168871-21.042523 105.004273-59.377416 143.339166s-89.170295 59.377416-143.339166 59.377416h-0.208342l0.208342 81.878332z" fill="#757575" /><path d="M302.095626 719.195931c35.209766 14.792269 72.50295 22.292574 110.837843 22.292574v-82.086674c-53.960529 0-105.004273-21.042523-143.130824-59.377416-38.334893-38.334893-59.377416-89.170295-59.377416-143.339166 0-46.04354 15.00061-89.586979 42.918413-125.005086 1.458393-1.875076 3.125127-3.750153 4.58352-5.625229 3.750153-4.375178 7.500305-8.542014 11.667141-12.708851 38.334893-38.334893 89.170295-59.377416 143.339166-59.377416V171.673652c-38.543235 0-75.836419 7.500305-110.837843 22.292574-15.417294 6.458596-30.209563 14.375585-44.168464 23.334283-16.667345 10.833774-32.292981 23.334283-46.460224 37.709867-22.500916 22.500916-40.834995 48.126958-54.585554 76.461445-2.29176 4.58352-4.375178 9.375381-6.458597 14.167243-14.792269 35.209766-22.292574 72.50295-22.292573 110.837843 0 38.334893 7.500305 75.836419 22.292573 110.837844 14.375585 33.959715 34.793082 64.37762 61.044151 90.628687 26.251068 26.251068 56.668973 46.876907 90.628688 61.252493z" fill="#616161" /></svg>